<svg width="45" height="45" viewBox="0 0 45 45" fill="none" xmlns="http://www.w3.org/2000/svg">
<path fill-rule="evenodd" clip-rule="evenodd" d="M11.25 5.625C9.6967 5.625 8.4375 6.8842 8.4375 8.4375C8.4375 9.9908 9.6967 11.25 11.25 11.25C12.8033 11.25 14.0625 9.9908 14.0625 8.4375C14.0625 6.8842 12.8033 5.625 11.25 5.625ZM5.625 8.4375C5.625 5.3309 8.1434 2.8125 11.25 2.8125C14.3566 2.8125 16.875 5.3309 16.875 8.4375C16.875 11.5441 14.3566 14.0625 11.25 14.0625C8.1434 14.0625 5.625 11.5441 5.625 8.4375Z" fill="#2169EF"/>
<path fill-rule="evenodd" clip-rule="evenodd" d="M22.5 33.75C20.9467 33.75 19.6875 35.0092 19.6875 36.5625C19.6875 38.1158 20.9467 39.375 22.5 39.375C24.0533 39.375 25.3125 38.1158 25.3125 36.5625C25.3125 35.0092 24.0533 33.75 22.5 33.75ZM16.875 36.5625C16.875 33.4559 19.3934 30.9375 22.5 30.9375C25.6066 30.9375 28.125 33.4559 28.125 36.5625C28.125 39.6691 25.6066 42.1875 22.5 42.1875C19.3934 42.1875 16.875 39.6691 16.875 36.5625Z" fill="#2169EF"/>
<path fill-rule="evenodd" clip-rule="evenodd" d="M22.5 21.0938C23.2767 21.0938 23.9062 21.7233 23.9062 22.5V32.3438C23.9062 33.1204 23.2767 33.75 22.5 33.75C21.7233 33.75 21.0938 33.1204 21.0938 32.3438V22.5C21.0938 21.7233 21.7233 21.0938 22.5 21.0938Z" fill="#2169EF"/>
<path fill-rule="evenodd" clip-rule="evenodd" d="M33.75 5.625C32.1967 5.625 30.9375 6.8842 30.9375 8.4375C30.9375 9.9908 32.1967 11.25 33.75 11.25C35.3033 11.25 36.5625 9.9908 36.5625 8.4375C36.5625 6.8842 35.3033 5.625 33.75 5.625ZM28.125 8.4375C28.125 5.3309 30.6434 2.8125 33.75 2.8125C36.8566 2.8125 39.375 5.3309 39.375 8.4375C39.375 11.5441 36.8566 14.0625 33.75 14.0625C30.6434 14.0625 28.125 11.5441 28.125 8.4375Z" fill="#2169EF"/>
<path fill-rule="evenodd" clip-rule="evenodd" d="M11.25 11.25C12.0267 11.25 12.6562 11.8796 12.6562 12.6562C12.6562 15.4479 13.923 17.5124 15.7775 18.9187C17.6683 20.3525 20.1732 21.0938 22.5 21.0938C23.2767 21.0938 23.9062 21.7233 23.9062 22.5C23.9062 23.2767 23.2767 23.9062 22.5 23.9062C19.6342 23.9062 16.5142 23.007 14.0781 21.1597C11.6057 19.2848 9.84375 16.4274 9.84375 12.6562C9.84375 11.8796 10.4733 11.25 11.25 11.25Z" fill="#2169EF"/>
<path fill-rule="evenodd" clip-rule="evenodd" d="M33.75 11.25C34.5267 11.25 35.1562 11.8796 35.1562 12.6562C35.1562 16.4274 33.3943 19.2848 30.9219 21.1597C28.4858 23.007 25.3658 23.9062 22.5 23.9062C21.7233 23.9062 21.0938 23.2767 21.0938 22.5C21.0938 21.7233 21.7233 21.0938 22.5 21.0938C24.8268 21.0938 27.3317 20.3525 29.2225 18.9187C31.077 17.5124 32.3438 15.4479 32.3438 12.6562C32.3438 11.8796 32.9733 11.25 33.75 11.25Z" fill="#2169EF"/>
</svg>
