<svg width="45" height="45" viewBox="0 0 45 45" fill="none" xmlns="http://www.w3.org/2000/svg">
<path d="M37.5 20.625C37.5 12.3407 30.7843 5.625 22.5 5.625C14.2157 5.625 7.5 12.3407 7.5 20.625" stroke="#2169EF" stroke-width="2.8125" stroke-linecap="round" stroke-linejoin="round"/>
<path d="M3.75 28.9471V25.4281C3.75 23.7072 4.92111 22.2074 6.59049 21.79L9.85215 20.9746C10.5622 20.797 11.25 21.334 11.25 22.066V32.3092C11.25 33.0412 10.5622 33.5782 9.85215 33.4006L6.59049 32.5852C4.92111 32.1678 3.75 30.668 3.75 28.9471Z" stroke="#2169EF" stroke-width="2.8125"/>
<path d="M41.25 28.9471V25.4281C41.25 23.7072 40.0789 22.2074 38.4096 21.79L35.1478 20.9746C34.4378 20.797 33.75 21.334 33.75 22.066V32.3092C33.75 33.0412 34.4378 33.5782 35.1478 33.4006L38.4096 32.5852C40.0789 32.1678 41.25 30.668 41.25 28.9471Z" stroke="#2169EF" stroke-width="2.8125"/>
<path d="M37.5 33.75V34.6875C37.5 36.7586 35.8211 38.4375 33.75 38.4375H27.1875" stroke="#2169EF" stroke-width="2.8125"/>
<path d="M25.3125 41.25H19.6875C18.1342 41.25 16.875 39.9908 16.875 38.4375C16.875 36.8842 18.1342 35.625 19.6875 35.625H25.3125C26.8658 35.625 28.125 36.8842 28.125 38.4375C28.125 39.9908 26.8658 41.25 25.3125 41.25Z" stroke="#2169EF" stroke-width="2.8125"/>
</svg>
