<svg width="45" height="45" viewBox="0 0 45 45" fill="none" xmlns="http://www.w3.org/2000/svg">
<path fill-rule="evenodd" clip-rule="evenodd" d="M22.5 7.03125C17.4518 7.03125 13.3594 11.1236 13.3594 16.1719C13.3594 21.2201 17.4518 25.3125 22.5 25.3125C27.5482 25.3125 31.6406 21.2201 31.6406 16.1719C31.6406 11.1236 27.5482 7.03125 22.5 7.03125ZM10.5469 16.1719C10.5469 9.57035 15.8985 4.21875 22.5 4.21875C29.1015 4.21875 34.4531 9.57035 34.4531 16.1719C34.4531 22.7734 29.1015 28.125 22.5 28.125C15.8985 28.125 10.5469 22.7734 10.5469 16.1719Z" fill="#2169EF"/>
<path fill-rule="evenodd" clip-rule="evenodd" d="M30.2344 19.6875C25.1861 19.6875 21.0938 23.7799 21.0938 28.8281C21.0938 33.8764 25.1861 37.9688 30.2344 37.9688C35.2826 37.9688 39.375 33.8764 39.375 28.8281C39.375 23.7799 35.2826 19.6875 30.2344 19.6875ZM18.2812 28.8281C18.2812 22.2266 23.6328 16.875 30.2344 16.875C36.8359 16.875 42.1875 22.2266 42.1875 28.8281C42.1875 35.4297 36.8359 40.7812 30.2344 40.7812C23.6328 40.7812 18.2812 35.4297 18.2812 28.8281Z" fill="#2169EF"/>
<path fill-rule="evenodd" clip-rule="evenodd" d="M14.7656 19.6875C9.7174 19.6875 5.625 23.7799 5.625 28.8281C5.625 33.8764 9.7174 37.9688 14.7656 37.9688C19.8139 37.9688 23.9062 33.8764 23.9062 28.8281C23.9062 23.7799 19.8139 19.6875 14.7656 19.6875ZM2.8125 28.8281C2.8125 22.2266 8.1641 16.875 14.7656 16.875C21.3672 16.875 26.7188 22.2266 26.7188 28.8281C26.7188 35.4297 21.3672 40.7812 14.7656 40.7812C8.1641 40.7812 2.8125 35.4297 2.8125 28.8281Z" fill="#2169EF"/>
</svg>
