<svg width="45" height="45" viewBox="0 0 45 45" fill="none" xmlns="http://www.w3.org/2000/svg">
<path fill-rule="evenodd" clip-rule="evenodd" d="M22.9311 4.21942C32.8279 4.44918 40.7803 12.5481 40.7803 22.5002C40.7803 32.6056 32.6117 40.8005 22.4965 40.7814C12.3726 40.7624 4.1058 32.4428 4.21792 22.3094C4.26368 17.8778 5.91887 13.6139 8.87516 10.3122C9.39323 9.73354 10.2823 9.68446 10.8609 10.2025C11.4395 10.7206 11.4886 11.6096 10.9705 12.1882C8.46924 14.9818 7.06886 18.5894 7.03027 22.3389L7.03026 22.34C6.93527 30.9007 13.9315 37.9528 22.5017 37.969C31.0544 37.9851 37.9678 31.0575 37.9678 22.5002C37.9678 14.4303 31.788 7.80044 23.9053 7.08994V13.3596C23.9053 14.1362 23.2757 14.7658 22.4991 14.7658C21.7224 14.7658 21.0928 14.1362 21.0928 13.3596V6.01066C21.0925 5.77127 21.1402 5.53425 21.2331 5.31363C21.3264 5.09221 21.4633 4.89184 21.6356 4.72446C21.808 4.55709 22.0123 4.42613 22.2364 4.3394C22.4577 4.25372 22.6939 4.21294 22.9311 4.21942Z" fill="#2169EF"/>
<path d="M20.5114 24.4893L13.5681 14.5576C13.472 14.42 13.4275 14.253 13.4422 14.0858C13.457 13.9187 13.5301 13.762 13.6487 13.6434C13.7674 13.5247 13.924 13.4516 14.0912 13.4368C14.2584 13.4221 14.4254 13.4667 14.563 13.5627L24.4947 20.5061C25.1038 20.9448 25.5158 21.6057 25.6414 22.3459C25.7671 23.086 25.5963 23.8459 25.166 24.4611C24.7358 25.0763 24.0806 25.4973 23.3423 25.6332C22.604 25.7691 21.8418 25.6088 21.2207 25.1871C20.9461 24.9968 20.7062 24.7608 20.5114 24.4893Z" fill="#2169EF"/>
</svg>
