<svg width="20" height="21" viewBox="0 0 20 21" fill="none" xmlns="http://www.w3.org/2000/svg">
<path d="M17.1263 3.65776C15.2988 1.83667 12.8622 0.824951 10.2903 0.824951C4.94333 0.824951 0.611627 5.14162 0.611627 10.47C0.611627 12.1562 1.08541 13.8424 1.8976 15.2588L0.543945 20.25L5.68785 18.901C7.10919 19.6429 8.66589 20.0476 10.2903 20.0476C15.6372 20.0476 19.9689 15.7309 19.9689 10.4026C19.9013 7.90698 18.9537 5.47886 17.1263 3.65776ZM14.9604 13.9098C14.7574 14.4494 13.8098 14.989 13.336 15.0565C12.9299 15.1239 12.3885 15.1239 11.847 14.989C11.5086 14.8541 11.0348 14.7192 10.4933 14.4494C8.05675 13.4377 6.50004 11.0096 6.36468 10.8072C6.22931 10.6723 5.34943 9.52573 5.34943 8.31167C5.34943 7.09761 5.95858 6.55802 6.16163 6.28823C6.36468 6.01844 6.63541 6.01844 6.83846 6.01844C6.97382 6.01844 7.17687 6.01844 7.31223 6.01844C7.4476 6.01844 7.65065 5.95099 7.8537 6.42313C8.05675 6.89526 8.53053 8.10933 8.59821 8.17677C8.66589 8.31167 8.66589 8.44657 8.59821 8.58146C8.53053 8.71636 8.46284 8.85125 8.32748 8.98615C8.19211 9.12104 8.05675 9.32339 7.98906 9.39084C7.8537 9.52573 7.71833 9.66063 7.8537 9.86297C7.98907 10.1328 8.46285 10.8747 9.20736 11.5492C10.1549 12.3585 10.8994 12.6283 11.1702 12.7632C11.4409 12.8981 11.5763 12.8307 11.7116 12.6958C11.847 12.5609 12.3208 12.0213 12.4561 11.7515C12.5915 11.4817 12.7946 11.5492 12.9976 11.6166C13.2007 11.6841 14.4189 12.2911 14.622 12.426C14.8927 12.5609 15.0281 12.6283 15.0958 12.6958C15.1635 12.8981 15.1635 13.3703 14.9604 13.9098Z" fill="white"/>
</svg>
