<svg width="13" height="14" viewBox="0 0 13 14" fill="none" xmlns="http://www.w3.org/2000/svg">
<path d="M1.54167 13.375C1.15208 13.375 0.818576 13.2363 0.541146 12.9589C0.263715 12.6814 0.125 12.3479 0.125 11.9583V2.04167C0.125 1.65208 0.263715 1.31858 0.541146 1.04115C0.818576 0.763715 1.15208 0.625 1.54167 0.625H6.5V2.04167H1.54167V11.9583H11.4583V7H12.875V11.9583C12.875 12.3479 12.7363 12.6814 12.4589 12.9589C12.1814 13.2363 11.8479 13.375 11.4583 13.375H1.54167ZM4.87083 9.62083L3.87917 8.62917L10.4667 2.04167H7.91667V0.625H12.875V5.58333H11.4583V3.03333L4.87083 9.62083Z" fill="#2169EF"/>
</svg>
