<svg width="21" height="21" viewBox="0 0 21 21" fill="none" xmlns="http://www.w3.org/2000/svg">
<path fill-rule="evenodd" clip-rule="evenodd" d="M5.17388 3.51449C6.28578 2.77155 7.59301 2.375 8.93028 2.375V3L8.93032 2.375C10.7235 2.37511 12.4432 3.0875 13.7111 4.35546C14.9791 5.62342 15.6915 7.34312 15.6916 9.13629V9.13633C15.6916 10.4736 15.2951 11.7808 14.5521 12.8927C13.8092 14.0046 12.7532 14.8712 11.5177 15.383C10.2823 15.8947 8.92278 16.0286 7.61121 15.7677C6.29964 15.5069 5.09488 14.8629 4.1493 13.9173C3.20371 12.9717 2.55975 11.767 2.29887 10.4554C2.03798 9.14383 2.17187 7.78435 2.68362 6.54888C3.19537 5.31341 4.06199 4.25743 5.17388 3.51449ZM8.93028 3.625C10.3919 3.6251 11.7937 4.20579 12.8273 5.23935C13.8608 6.2729 14.4415 7.67466 14.4416 9.13633M8.93024 3.625C7.84021 3.62501 6.77467 3.94824 5.86835 4.55383C4.96201 5.15942 4.25561 6.02017 3.83847 7.02723C3.42133 8.0343 3.31219 9.14244 3.52485 10.2115C3.7375 11.2806 4.26241 12.2627 5.03318 13.0334C5.80395 13.8042 6.78598 14.3291 7.85507 14.5418C8.92416 14.7544 10.0323 14.6453 11.0394 14.2281C12.0464 13.811 12.9072 13.1046 13.5128 12.1983C14.1184 11.2919 14.4416 10.2264 14.4416 9.13637" fill="#777777"/>
<path fill-rule="evenodd" clip-rule="evenodd" d="M13.0668 13.2724C13.3109 13.0283 13.7067 13.0283 13.9507 13.2724L18.2363 17.558C18.4804 17.802 18.4804 18.1978 18.2363 18.4418C17.9922 18.6859 17.5965 18.6859 17.3524 18.4418L13.0668 14.1563C12.8228 13.9122 12.8228 13.5165 13.0668 13.2724Z" fill="#777777"/>
</svg>
