<svg width="21" height="21" viewBox="0 0 21 21" fill="none" xmlns="http://www.w3.org/2000/svg">
<path d="M13.4838 6.69632L6.0153 9.99354C5.59609 10.1857 5.73703 10.8211 6.19828 10.8211H9.76976C9.81224 10.8211 9.85298 10.838 9.88301 10.8681C9.91305 10.8981 9.92992 10.9388 9.92992 10.9813V14.552C9.92992 15.0132 10.5705 15.1526 10.7619 14.7346L14.0539 7.26648C14.0908 7.18668 14.1023 7.0975 14.0869 7.01097C14.0714 6.92444 14.0298 6.84472 13.9677 6.78257C13.9055 6.72042 13.8258 6.67883 13.7393 6.6634C13.6528 6.64798 13.5636 6.65947 13.4838 6.69632Z" fill="#777777"/>
<path fill-rule="evenodd" clip-rule="evenodd" d="M1.92188 10.5C1.92188 5.90205 5.65205 2.17188 10.25 2.17188C14.8479 2.17188 18.5781 5.90205 18.5781 10.5C18.5781 15.0979 14.8479 18.8281 10.25 18.8281C5.65205 18.8281 1.92188 15.0979 1.92188 10.5ZM10.25 3.45312C6.35967 3.45312 3.20312 6.60967 3.20312 10.5C3.20312 14.3903 6.35967 17.5469 10.25 17.5469C14.1403 17.5469 17.2969 14.3903 17.2969 10.5C17.2969 6.60967 14.1403 3.45312 10.25 3.45312Z" fill="#777777"/>
</svg>
